<?xml version="1.0" encoding="utf-8"?>
<!-- Generator: Adobe Illustrator 16.0.0, SVG Export Plug-In . SVG Version: 6.00 Build 0)  -->
<!DOCTYPE svg PUBLIC "-//W3C//DTD SVG 1.1//EN" "http://www.w3.org/Graphics/SVG/1.1/DTD/svg11.dtd">
<svg version="1.1" id="Layer_1" xmlns="http://www.w3.org/2000/svg" xmlns:xlink="http://www.w3.org/1999/xlink" x="0px" y="0px"
	 width="100px" height="100px" viewBox="0 0 100 100" enable-background="new 0 0 100 100" xml:space="preserve">
<path fill="none" stroke="#231F20" stroke-width="0.25" stroke-miterlimit="10" d="M1,6.337c0,0,39.341-1.745,31.86,42.38
	c-7.479,44.126,24.519,36.398,29.506,38.642"/>
<path fill="none" stroke="#231F20" stroke-width="0.25" stroke-miterlimit="10" d="M1,7.728c0,0,34.462,0.538,31.399,41.132
	c-3.062,40.596,25.154,31.662,31.298,37.029"/>
<path fill="none" stroke="#231F20" stroke-width="0.25" stroke-miterlimit="10" d="M1,9.119c0,0,29.583,2.82,30.938,39.883
	c1.355,37.064,25.79,26.925,33.091,35.416"/>
<path fill="none" stroke="#231F20" stroke-width="0.25" stroke-miterlimit="10" d="M1,10.51c0,0,24.705,5.102,30.477,38.634
	c5.772,33.533,26.425,22.189,34.884,33.803"/>
<path fill="none" stroke="#231F20" stroke-width="0.25" stroke-miterlimit="10" d="M1,11.901c0,0,19.826,7.385,30.015,37.386
	c10.19,30.001,27.06,17.454,36.676,32.189"/>
<path fill="none" stroke="#231F20" stroke-width="0.25" stroke-miterlimit="10" d="M1,13.292c0,0,14.947,9.668,29.554,36.138
	C45.161,75.9,58.25,62.147,69.023,80.006"/>
<path fill="none" stroke="#231F20" stroke-width="0.25" stroke-miterlimit="10" d="M1,14.684c0,0,10.068,11.95,29.093,34.889
	c19.024,22.939,28.331,7.981,40.262,28.963"/>
<path fill="none" stroke="#231F20" stroke-width="0.25" stroke-miterlimit="10" d="M1,16.075c0,0,5.19,14.232,28.631,33.64
	c23.442,19.408,28.966,3.245,42.054,27.35"/>
<path fill="none" stroke="#231F20" stroke-width="0.25" stroke-miterlimit="10" d="M1,17.466c0,0,0.312,16.515,28.17,32.392
	s29.601-1.491,43.846,25.736"/>
<path fill="none" stroke="#231F20" stroke-width="0.25" stroke-miterlimit="10" d="M1,18.857c0,0-4.567,18.797,27.709,31.143
	s30.237-6.228,45.64,24.123"/>
</svg>
